# Blender 4.0.2
# www.blender.org
mtllib muzzleCone.mtl
o Cylinder
v -0.001475 -1.001277 -0.002679
v 0.193615 -0.982063 -0.002679
v 0.381208 -0.925157 -0.002679
v 0.554095 -0.832747 -0.002679
v 0.705631 -0.708384 -0.002679
v 0.829994 -0.556848 -0.002679
v 0.922404 -0.383961 -0.002679
v 0.979310 -0.196368 -0.002679
v 0.998525 -0.001277 -0.002679
v 0.979310 0.193813 -0.002679
v 0.922404 0.381406 -0.002679
v 0.829994 0.554293 -0.002679
v 0.705631 0.705830 -0.002679
v 0.554095 0.830192 -0.002679
v 0.381208 0.922602 -0.002679
v 0.193615 0.979508 -0.002679
v -0.001475 0.998723 -0.002679
v -0.196566 0.979508 -0.002679
v -0.384159 0.922602 -0.002679
v -0.557046 0.830192 -0.002679
v -0.708582 0.705830 -0.002679
v -0.832945 0.554293 -0.002679
v -0.925355 0.381406 -0.002679
v -0.982261 0.193813 -0.002679
v -1.001475 -0.001277 -0.002679
v -0.982261 -0.196368 -0.002679
v -0.925355 -0.383961 -0.002679
v -0.832945 -0.556848 -0.002679
v -0.708582 -0.708384 -0.002679
v -0.557046 -0.832747 -0.002679
v -0.384159 -0.925157 -0.002679
v -0.196566 -0.982063 -0.002679
v -0.067190 -0.558168 -0.121985
v 0.030355 -0.548561 -0.121985
v 0.124151 -0.520108 -0.121985
v 0.210595 -0.473903 -0.121985
v 0.286363 -0.411722 -0.121985
v 0.348544 -0.335953 -0.121985
v 0.394749 -0.249510 -0.121985
v 0.423202 -0.155713 -0.121985
v 0.432810 -0.058168 -0.121985
v 0.423202 0.039377 -0.121985
v 0.394749 0.133174 -0.121985
v 0.348544 0.219617 -0.121985
v 0.286363 0.295385 -0.121985
v 0.210595 0.357567 -0.121985
v 0.124151 0.403772 -0.121985
v 0.030355 0.432224 -0.121985
v -0.067190 0.441832 -0.121985
v -0.164736 0.432224 -0.121985
v -0.258532 0.403772 -0.121985
v -0.344976 0.357567 -0.121985
v -0.420744 0.295385 -0.121985
v -0.482925 0.219617 -0.121985
v -0.529130 0.133174 -0.121985
v -0.557583 0.039377 -0.121985
v -0.567190 -0.058168 -0.121985
v -0.557583 -0.155713 -0.121985
v -0.529130 -0.249510 -0.121985
v -0.482925 -0.335953 -0.121985
v -0.420744 -0.411722 -0.121985
v -0.344976 -0.473903 -0.121985
v -0.258532 -0.520108 -0.121985
v -0.164736 -0.548561 -0.121985
v -0.111759 -0.164642 -0.202900
v -0.098514 -0.163338 -0.202900
v -0.085778 -0.159474 -0.202900
v -0.074041 -0.153201 -0.202900
v -0.063753 -0.144758 -0.202900
v -0.055310 -0.134470 -0.202900
v -0.049036 -0.122732 -0.202900
v -0.045173 -0.109997 -0.202900
v -0.043868 -0.096752 -0.202900
v -0.045173 -0.083507 -0.202900
v -0.049036 -0.070771 -0.202900
v -0.055310 -0.059034 -0.202900
v -0.063753 -0.048746 -0.202900
v -0.074041 -0.040303 -0.202900
v -0.085778 -0.034029 -0.202900
v -0.098514 -0.030166 -0.202900
v -0.111759 -0.028862 -0.202900
v -0.125004 -0.030166 -0.202900
v -0.137739 -0.034029 -0.202900
v -0.149477 -0.040303 -0.202900
v -0.159765 -0.048746 -0.202900
v -0.168208 -0.059034 -0.202900
v -0.174481 -0.070771 -0.202900
v -0.178345 -0.083507 -0.202900
v -0.179649 -0.096752 -0.202900
v -0.178345 -0.109997 -0.202900
v -0.174481 -0.122732 -0.202900
v -0.168208 -0.134470 -0.202900
v -0.159765 -0.144758 -0.202900
v -0.149477 -0.153201 -0.202900
v -0.137739 -0.159474 -0.202900
v -0.125004 -0.163338 -0.202900
vn -0.0502 -0.2616 -0.9639
vn -0.0471 -0.2333 -0.9713
vn -0.0007 -0.2327 -0.9725
vn 0.0021 -0.2597 -0.9657
vn -0.1027 -0.2516 -0.9624
vn -0.0932 -0.2237 -0.9702
vn -0.1524 -0.2296 -0.9613
vn -0.1365 -0.2038 -0.9695
vn -0.1959 -0.1963 -0.9608
vn -0.1745 -0.1744 -0.9691
vn -0.2306 -0.1536 -0.9609
vn -0.2049 -0.1371 -0.9691
vn -0.2542 -0.1042 -0.9615
vn -0.2259 -0.0939 -0.9696
vn -0.2656 -0.0513 -0.9627
vn -0.2366 -0.0476 -0.9705
vn -0.2647 0.0019 -0.9643
vn -0.2367 -0.0007 -0.9716
vn -0.2524 0.0524 -0.9662
vn -0.2268 0.0443 -0.9729
vn -0.2302 0.0979 -0.9682
vn -0.2082 0.0853 -0.9744
vn -0.2001 0.1365 -0.9702
vn -0.1821 0.1207 -0.9758
vn -0.1642 0.1674 -0.9721
vn -0.1505 0.1494 -0.9773
vn -0.1244 0.1900 -0.9739
vn -0.1150 0.1708 -0.9786
vn -0.0826 0.2043 -0.9754
vn -0.0772 0.1847 -0.9798
vn -0.0402 0.2106 -0.9767
vn -0.0386 0.1913 -0.9808
vn 0.0014 0.2093 -0.9778
vn -0.0005 0.1908 -0.9816
vn 0.0411 0.2011 -0.9787
vn 0.0362 0.1837 -0.9823
vn 0.0781 0.1865 -0.9793
vn 0.0704 0.1707 -0.9828
vn 0.1116 0.1662 -0.9798
vn 0.1015 0.1522 -0.9831
vn 0.1410 0.1408 -0.9799
vn 0.1287 0.1288 -0.9833
vn 0.1657 0.1110 -0.9799
vn 0.1516 0.1012 -0.9833
vn 0.1852 0.0773 -0.9797
vn 0.1694 0.0700 -0.9831
vn 0.1989 0.0404 -0.9792
vn 0.1818 0.0359 -0.9827
vn 0.2062 0.0012 -0.9785
vn 0.1881 -0.0004 -0.9821
vn 0.2068 -0.0397 -0.9776
vn 0.1881 -0.0379 -0.9814
vn 0.2001 -0.0810 -0.9764
vn 0.1812 -0.0757 -0.9805
vn 0.1858 -0.1217 -0.9750
vn 0.1673 -0.1126 -0.9795
vn 0.1635 -0.1604 -0.9734
vn 0.1462 -0.1472 -0.9782
vn 0.1333 -0.1954 -0.9716
vn 0.1181 -0.1782 -0.9769
vn 0.0957 -0.2249 -0.9697
vn 0.0835 -0.2038 -0.9754
vn 0.0515 -0.2469 -0.9677
vn 0.0434 -0.2225 -0.9740
vn -0.0414 -0.2013 -0.9787
vn -0.0015 -0.2016 -0.9795
vn -0.0807 -0.1924 -0.9780
vn -0.1176 -0.1749 -0.9775
vn -0.1499 -0.1497 -0.9773
vn -0.1758 -0.1178 -0.9773
vn -0.1940 -0.0811 -0.9776
vn -0.2037 -0.0416 -0.9782
vn -0.2045 -0.0014 -0.9789
vn -0.1969 0.0376 -0.9797
vn -0.1816 0.0734 -0.9806
vn -0.1597 0.1046 -0.9816
vn -0.1328 0.1303 -0.9825
vn -0.1021 0.1498 -0.9834
vn -0.0691 0.1629 -0.9842
vn -0.0350 0.1693 -0.9849
vn -0.0011 0.1695 -0.9855
vn 0.0317 0.1637 -0.9860
vn 0.0624 0.1524 -0.9864
vn 0.0904 0.1360 -0.9866
vn 0.1149 0.1151 -0.9867
vn 0.1354 0.0903 -0.9867
vn 0.1513 0.0622 -0.9865
vn 0.1621 0.0316 -0.9863
vn 0.1674 -0.0009 -0.9859
vn 0.1669 -0.0344 -0.9854
vn 0.1602 -0.0678 -0.9848
vn 0.1472 -0.1002 -0.9840
vn 0.1279 -0.1302 -0.9832
vn 0.1026 -0.1567 -0.9823
vn 0.0720 -0.1783 -0.9813
vn 0.0368 -0.1936 -0.9804
vt 0.402455 0.990393
vt 0.451227 0.745196
vt 0.500000 0.750000
vt 0.500000 1.000000
vt 0.308658 0.961940
vt 0.404329 0.730970
vt 0.222215 0.915735
vt 0.361107 0.707867
vt 0.146447 0.853553
vt 0.323223 0.676777
vt 0.084265 0.777785
vt 0.292133 0.638893
vt 0.038060 0.691342
vt 0.269030 0.595671
vt 0.009607 0.597545
vt 0.254804 0.548773
vt 0.000000 0.500000
vt 0.250000 0.500000
vt 0.009607 0.402455
vt 0.254804 0.451227
vt 0.038060 0.308658
vt 0.269030 0.404329
vt 0.084265 0.222215
vt 0.292133 0.361107
vt 0.146447 0.146447
vt 0.323223 0.323223
vt 0.222215 0.084265
vt 0.361107 0.292133
vt 0.308658 0.038060
vt 0.404329 0.269030
vt 0.402455 0.009607
vt 0.451227 0.254804
vt 0.500000 0.000000
vt 0.500000 0.250000
vt 0.597545 0.009607
vt 0.548773 0.254804
vt 0.691342 0.038060
vt 0.595671 0.269030
vt 0.777785 0.084265
vt 0.638893 0.292133
vt 0.853553 0.146447
vt 0.676777 0.323223
vt 0.915735 0.222215
vt 0.707867 0.361107
vt 0.961940 0.308658
vt 0.730970 0.404329
vt 0.990393 0.402455
vt 0.745196 0.451227
vt 1.000000 0.500000
vt 0.750000 0.500000
vt 0.990393 0.597545
vt 0.745196 0.548773
vt 0.961940 0.691342
vt 0.730970 0.595671
vt 0.915735 0.777785
vt 0.707867 0.638893
vt 0.853553 0.853553
vt 0.676777 0.676777
vt 0.777785 0.915735
vt 0.638893 0.707867
vt 0.691342 0.961940
vt 0.595671 0.730970
vt 0.597545 0.990393
vt 0.548773 0.745196
vt 0.493378 0.533293
vt 0.500000 0.533945
vt 0.487010 0.531361
vt 0.481141 0.528224
vt 0.475997 0.524003
vt 0.471776 0.518859
vt 0.468639 0.512990
vt 0.466707 0.506622
vt 0.466055 0.500000
vt 0.466707 0.493378
vt 0.468639 0.487010
vt 0.471776 0.481141
vt 0.475997 0.475997
vt 0.481141 0.471776
vt 0.487010 0.468639
vt 0.493378 0.466707
vt 0.500000 0.466055
vt 0.506622 0.466707
vt 0.512990 0.468639
vt 0.518859 0.471776
vt 0.524003 0.475997
vt 0.528224 0.481141
vt 0.531361 0.487010
vt 0.533293 0.493378
vt 0.533945 0.500000
vt 0.533293 0.506622
vt 0.531361 0.512990
vt 0.528224 0.518859
vt 0.524003 0.524003
vt 0.518859 0.528224
vt 0.512990 0.531361
vt 0.506622 0.533293
s 1
f 32/1/1 64/2/2 33/3/3 1/4/4
f 31/5/5 63/6/6 64/2/2 32/1/1
f 30/7/7 62/8/8 63/6/6 31/5/5
f 29/9/9 61/10/10 62/8/8 30/7/7
f 28/11/11 60/12/12 61/10/10 29/9/9
f 27/13/13 59/14/14 60/12/12 28/11/11
f 26/15/15 58/16/16 59/14/14 27/13/13
f 25/17/17 57/18/18 58/16/16 26/15/15
f 24/19/19 56/20/20 57/18/18 25/17/17
f 23/21/21 55/22/22 56/20/20 24/19/19
f 22/23/23 54/24/24 55/22/22 23/21/21
f 21/25/25 53/26/26 54/24/24 22/23/23
f 20/27/27 52/28/28 53/26/26 21/25/25
f 19/29/29 51/30/30 52/28/28 20/27/27
f 18/31/31 50/32/32 51/30/30 19/29/29
f 17/33/33 49/34/34 50/32/32 18/31/31
f 16/35/35 48/36/36 49/34/34 17/33/33
f 15/37/37 47/38/38 48/36/36 16/35/35
f 14/39/39 46/40/40 47/38/38 15/37/37
f 13/41/41 45/42/42 46/40/40 14/39/39
f 12/43/43 44/44/44 45/42/42 13/41/41
f 11/45/45 43/46/46 44/44/44 12/43/43
f 10/47/47 42/48/48 43/46/46 11/45/45
f 9/49/49 41/50/50 42/48/48 10/47/47
f 8/51/51 40/52/52 41/50/50 9/49/49
f 7/53/53 39/54/54 40/52/52 8/51/51
f 6/55/55 38/56/56 39/54/54 7/53/53
f 5/57/57 37/58/58 38/56/56 6/55/55
f 4/59/59 36/60/60 37/58/58 5/57/57
f 3/61/61 35/62/62 36/60/60 4/59/59
f 2/63/63 34/64/64 35/62/62 3/61/61
f 1/4/4 33/3/3 34/64/64 2/63/63
f 64/2/2 96/65/65 65/66/66 33/3/3
f 63/6/6 95/67/67 96/65/65 64/2/2
f 62/8/8 94/68/68 95/67/67 63/6/6
f 61/10/10 93/69/69 94/68/68 62/8/8
f 60/12/12 92/70/70 93/69/69 61/10/10
f 59/14/14 91/71/71 92/70/70 60/12/12
f 58/16/16 90/72/72 91/71/71 59/14/14
f 57/18/18 89/73/73 90/72/72 58/16/16
f 56/20/20 88/74/74 89/73/73 57/18/18
f 55/22/22 87/75/75 88/74/74 56/20/20
f 54/24/24 86/76/76 87/75/75 55/22/22
f 53/26/26 85/77/77 86/76/76 54/24/24
f 52/28/28 84/78/78 85/77/77 53/26/26
f 51/30/30 83/79/79 84/78/78 52/28/28
f 50/32/32 82/80/80 83/79/79 51/30/30
f 49/34/34 81/81/81 82/80/80 50/32/32
f 48/36/36 80/82/82 81/81/81 49/34/34
f 47/38/38 79/83/83 80/82/82 48/36/36
f 46/40/40 78/84/84 79/83/83 47/38/38
f 45/42/42 77/85/85 78/84/84 46/40/40
f 44/44/44 76/86/86 77/85/85 45/42/42
f 43/46/46 75/87/87 76/86/86 44/44/44
f 42/48/48 74/88/88 75/87/87 43/46/46
f 41/50/50 73/89/89 74/88/88 42/48/48
f 40/52/52 72/90/90 73/89/89 41/50/50
f 39/54/54 71/91/91 72/90/90 40/52/52
f 38/56/56 70/92/92 71/91/91 39/54/54
f 37/58/58 69/93/93 70/92/92 38/56/56
f 36/60/60 68/94/94 69/93/93 37/58/58
f 35/62/62 67/95/95 68/94/94 36/60/60
f 34/64/64 66/96/96 67/95/95 35/62/62
f 33/3/3 65/66/66 66/96/96 34/64/64
